<?xml version="1.0" standalone="no"?>
<!DOCTYPE svg PUBLIC "-//W3C//DTD SVG 20010904//EN"
 "http://www.w3.org/TR/2001/REC-SVG-20010904/DTD/svg10.dtd">
<svg version="1.0" xmlns="http://www.w3.org/2000/svg"
 width="3500.000000pt" height="1020.000000pt" viewBox="0 0 3500.000000 1020.000000"
 preserveAspectRatio="xMidYMid meet">

<g transform="translate(0.000000,1020.000000) scale(0.100000,-0.100000)"
fill="#000000" stroke="none">
<path d="M33426 10189 c-263 -900 -834 -1872 -1643 -2798 -169 -193 -574 -604
-793 -804 -308 -281 -723 -622 -744 -610 -6 4 -49 32 -96 63 -716 478 -1543
888 -2430 1205 l-175 63 40 16 c22 9 330 135 685 279 l645 263 246 825 247
824 -2651 3 c-1458 1 -2654 -1 -2657 -5 -4 -5 -107 -346 -230 -759 l-224 -751
-490 0 c-482 0 -726 -9 -1096 -38 -244 -20 -550 -56 -545 -65 2 -4 53 -10 112
-14 464 -29 1269 -139 1823 -247 2024 -397 3884 -1139 5639 -2252 160 -101
172 -111 155 -124 -42 -31 -489 -296 -649 -385 -2293 -1280 -5176 -2097 -8575
-2432 -1027 -102 -2369 -174 -3285 -177 -135 0 -203 -4 -190 -9 22 -11 494
-68 815 -99 2163 -213 4443 -201 6380 35 2619 318 4743 1016 6330 2081 85 57
189 128 231 158 l77 55 133 -102 c928 -706 1852 -1578 2642 -2491 449 -519
900 -1109 1302 -1705 71 -106 131 -189 133 -184 4 14 -146 431 -253 702 -571
1444 -1312 2653 -2261 3690 -166 181 -584 596 -731 724 l-102 90 142 149 c246
259 413 455 591 692 763 1016 1235 2218 1411 3595 41 322 63 614 41 539z
m-5456 -1526 c0 -5 -19 -70 -43 -146 l-42 -138 -448 -190 -448 -189 -1080 0
c-692 0 -1079 3 -1079 10 0 8 182 614 195 648 3 9 308 12 1475 12 808 0 1470
-3 1470 -7z"/>
<path d="M6717 9523 c-7 -12 -237 -781 -237 -793 0 -5 361 -325 803 -711 441
-386 810 -710 821 -719 18 -17 14 -31 -124 -491 -79 -261 -145 -480 -148 -487
-3 -10 116 -12 589 -10 l593 3 138 460 c76 253 141 466 145 473 5 8 564 332
1243 720 l1234 707 133 420 c73 231 133 421 133 423 0 1 -267 2 -593 2 l-593
0 -59 -200 c-32 -111 -63 -207 -69 -214 -8 -10 -1651 -944 -1802 -1024 -19
-10 -71 32 -560 455 -296 256 -554 479 -572 495 l-34 29 65 217 c36 119 69
225 72 235 7 16 -25 17 -583 17 -325 0 -593 -3 -595 -7z"/>
<path d="M18076 8903 c-109 -346 -200 -633 -203 -639 -2 -6 120 -82 272 -168
151 -87 275 -161 275 -165 0 -3 -166 -75 -370 -159 -244 -102 -371 -159 -374
-170 -22 -77 -379 -1268 -383 -1278 -4 -12 402 -14 2652 -12 l2657 3 129 410
c71 226 129 416 129 422 0 10 -410 13 -2002 15 l-2002 3 872 365 c479 201 870
369 869 374 -2 4 -307 178 -679 385 l-676 376 2037 3 2037 2 128 412 c71 227
131 420 134 430 4 17 -113 18 -2650 18 l-2654 0 -198 -627z"/>
<path d="M477 7922 c-263 -878 -478 -1600 -477 -1604 0 -5 262 -8 583 -8 l583
0 449 1498 c247 823 463 1545 481 1605 l32 107 -586 0 -587 0 -478 -1598z"/>
<path d="M5071 9498 c-4 -13 -84 -276 -177 -585 l-169 -563 -1325 0 -1326 0
-128 -412 c-71 -227 -131 -420 -134 -430 -4 -17 57 -18 1317 -18 726 0 1321
-4 1321 -8 0 -5 -78 -269 -174 -588 l-173 -579 595 -3 c328 -1 599 1 603 5 3
5 214 707 468 1561 255 855 468 1573 476 1598 l13 44 -589 0 -589 0 -9 -22z"/>
<path d="M12415 9508 c-12 -32 -955 -3182 -955 -3190 0 -4 265 -8 588 -8 l588
0 354 1180 355 1180 1472 0 c810 0 1473 -3 1473 -7 0 -5 -17 -62 -38 -128
l-38 -120 -89 -38 c-50 -22 -271 -115 -493 -208 l-402 -169 -898 0 -898 0
-132 -423 c-73 -232 -132 -426 -132 -430 0 -4 503 -7 1117 -7 l1118 0 905 381
c498 209 910 386 916 392 6 7 102 309 214 672 112 363 222 722 245 798 l43
137 -2654 0 c-2115 0 -2656 -3 -2659 -12z"/>
<path d="M23456 7373 c-3 -10 -75 -251 -160 -535 -86 -285 -156 -520 -156
-523 0 -3 265 -5 590 -5 l589 0 12 43 c6 23 58 197 116 387 58 190 108 355
110 367 4 19 -1 23 -38 33 -24 7 -92 25 -152 41 -170 46 -873 209 -902 209 -2
0 -6 -8 -9 -17z"/>
</g>
</svg>
