<?xml version="1.0" standalone="no"?>
<!DOCTYPE svg PUBLIC "-//W3C//DTD SVG 20010904//EN"
 "http://www.w3.org/TR/2001/REC-SVG-20010904/DTD/svg10.dtd">
<svg version="1.0" xmlns="http://www.w3.org/2000/svg"
 width="2766.000000pt" height="1818.000000pt" viewBox="0 0 2766.000000 1818.000000"
 preserveAspectRatio="xMidYMid meet">

<g transform="translate(0.000000,1818.000000) scale(0.100000,-0.100000)"
fill="#000000" stroke="none">
<path d="M12960 18160 c-466 -884 -1020 -1827 -1447 -2463 -404 -601 -760
-1040 -1027 -1266 -263 -223 -607 -372 -934 -406 -58 -6 -63 -5 -58 12 13 43
124 520 211 908 150 673 335 1615 316 1615 -3 0 -45 -78 -93 -173 -276 -547
-615 -1110 -880 -1462 -262 -348 -486 -549 -663 -593 -311 -79 -1123 115
-2135 509 -116 45 -212 80 -214 78 -344 -442 -846 -996 -1261 -1393 -776 -740
-1462 -1256 -2195 -1651 -788 -424 -1617 -635 -2298 -586 -90 7 -189 16 -220
21 -31 5 -57 8 -59 7 -4 -5 154 -438 255 -702 214 -555 381 -940 585 -1345
178 -354 229 -468 358 -808 228 -600 360 -858 576 -1127 100 -125 288 -308
413 -401 95 -71 271 -186 277 -181 1 2 -18 57 -43 123 -58 152 -124 364 -168
541 -142 564 -150 1033 -24 1380 65 181 188 226 724 266 l61 5 33 -97 c51
-148 132 -335 235 -540 126 -250 119 -244 134 -140 24 169 131 438 275 693 42
74 76 139 76 145 0 6 10 13 23 15 117 25 330 83 405 111 125 46 269 123 367
194 l79 58 47 -111 c80 -194 230 -506 242 -506 1 0 2 44 3 98 2 236 121 582
370 1072 63 124 123 239 134 257 22 37 117 89 225 123 76 23 218 31 236 13 8
-8 7 -74 -1 -231 -16 -283 -8 -1000 14 -1232 68 -720 188 -1172 420 -1590 262
-472 412 -988 433 -1482 l6 -158 -47 -21 c-141 -62 -391 -95 -641 -85 -88 3
-171 9 -185 13 -49 12 -6 -14 54 -32 246 -76 490 -300 615 -564 l30 -64 -42
-61 c-85 -125 -189 -207 -320 -251 -213 -71 -671 6 -1124 189 -272 110 -527
240 -757 385 -54 34 -101 60 -103 57 -6 -6 94 -138 217 -286 416 -498 857
-862 1226 -1010 198 -79 237 -85 514 -84 270 1 422 16 600 60 264 66 456 181
595 357 111 140 182 296 228 507 38 171 48 290 45 550 -3 328 0 433 17 605
142 1372 622 2275 1310 2466 44 12 86 23 94 26 8 2 12 5 10 8 -7 7 -214 -41
-349 -80 -557 -163 -1042 -460 -1317 -807 l-60 -76 -22 156 c-55 407 -65 550
-66 927 0 242 4 394 13 465 78 616 316 1048 732 1325 296 198 573 290 1304
436 414 83 782 139 1636 249 560 72 819 109 1085 155 1203 207 2031 528 2855
1104 155 109 342 252 336 258 -2 2 -111 -20 -243 -51 -747 -172 -1636 -323
-2328 -395 -313 -33 -875 -66 -857 -50 4 3 57 39 117 79 572 379 1249 1007
1802 1669 830 995 1477 2162 1898 3426 92 277 148 462 143 476 -2 6 -44 -54
-95 -133 -198 -309 -527 -771 -795 -1114 -1044 -1342 -2144 -2362 -3198 -2966
-138 -79 -441 -238 -454 -238 -2 0 14 39 36 88 226 488 571 1294 809 1889 490
1225 774 2111 869 2705 23 143 23 181 0 138z m-6784 -5306 c-118 -472 -231
-935 -251 -1029 -21 -93 -39 -171 -39 -172 -6 -7 -195 -38 -471 -78 -367 -52
-700 -90 -1270 -145 -231 -22 -442 -42 -470 -46 l-50 -6 145 104 c921 660
2079 1640 2513 2126 55 62 102 111 104 109 1 -2 -93 -390 -211 -863z"/>
<path d="M16017 18147 c15 -18 84 -99 153 -179 1702 -1978 2816 -5029 3214
-8803 114 -1085 170 -2356 146 -3330 -5 -231 -10 -440 -10 -464 0 -24 -2 -42
-5 -39 -3 3 -17 70 -30 149 -189 1076 -648 2048 -1363 2878 -283 328 -623 644
-931 864 -51 37 -97 67 -102 67 -5 0 -2 -17 7 -37 48 -114 189 -480 238 -618
459 -1314 583 -2548 370 -3685 -158 -837 -513 -1631 -1009 -2250 -103 -129
-255 -297 -299 -331 l-29 -23 6 25 c3 13 17 85 31 159 155 846 148 1597 -20
2164 -54 183 -172 433 -194 410 -4 -5 -15 -43 -24 -84 -77 -347 -244 -830
-421 -1210 -474 -1022 -1270 -1961 -2300 -2712 -561 -409 -1227 -781 -1834
-1024 -74 -30 -140 -54 -147 -54 -6 0 -26 39 -43 88 -165 465 -193 953 -81
1389 101 388 280 664 697 1074 151 148 308 286 407 357 l46 33 0 -83 c0 -311
-130 -833 -306 -1232 -24 -54 -44 -101 -44 -104 0 -19 227 238 351 398 433
557 792 1259 1004 1961 57 192 119 441 145 594 28 156 39 200 51 188 5 -5 27
-53 49 -108 75 -182 128 -424 149 -678 13 -156 14 -482 1 -632 -5 -60 -11
-141 -15 -180 l-6 -70 31 75 c49 119 244 707 299 903 127 448 209 848 257
1249 25 209 30 688 9 868 -15 132 -50 323 -75 409 -5 19 -8 36 -6 38 1 2 65
-59 141 -134 149 -149 315 -339 433 -498 l75 -100 -7 90 c-11 148 -65 668 -87
845 -149 1213 -409 1892 -951 2490 -274 302 -690 606 -1164 850 -399 206 -923
336 -1529 380 -179 13 -650 13 -825 0 -1133 -83 -2005 -444 -2364 -980 -139
-206 -203 -465 -176 -714 6 -60 14 -114 17 -119 3 -5 17 28 30 73 13 46 44
123 69 171 186 359 550 577 1053 630 142 15 491 6 651 -16 285 -39 673 -132
960 -230 489 -167 851 -482 1021 -889 78 -187 110 -359 109 -591 0 -315 -70
-586 -240 -931 -296 -602 -844 -1171 -1605 -1670 -300 -196 -646 -386 -1060
-579 -880 -413 -1427 -710 -1949 -1057 -442 -295 -717 -518 -1052 -852 -406
-406 -658 -748 -887 -1206 -183 -365 -302 -706 -382 -1100 -28 -136 -65 -361
-65 -398 l0 -23 3933 4 c2857 3 3985 7 4127 15 838 51 1433 118 2075 233 1400
251 2705 716 3710 1322 252 152 574 377 730 511 109 94 99 97 91 -29 -41 -643
-321 -1338 -778 -1933 -44 -57 -78 -106 -75 -108 14 -15 445 212 660 348 762
481 1368 1168 1777 2013 327 674 527 1447 572 2204 l3 44 76 -94 c560 -692
931 -1656 1103 -2869 60 -420 89 -831 90 -1272 1 -180 4 -324 8 -320 4 4 28
54 54 112 366 825 590 1794 679 2935 53 684 45 1643 -20 2385 -29 331 -102
929 -121 993 -16 54 537 -277 821 -491 238 -179 408 -326 639 -552 785 -769
1476 -1825 2028 -3100 281 -650 537 -1393 699 -2029 27 -107 51 -196 53 -198
6 -7 16 297 22 712 9 605 -11 1432 -51 2110 -229 3861 -1234 7114 -2989 9670
-268 390 -587 807 -885 1155 -426 498 -958 1031 -1453 1457 -1497 1288 -3318
2254 -5188 2751 -334 89 -878 202 -973 202 l-28 0 28 -33z"/>
</g>
</svg>
